<svg width="53" height="69" viewBox="0 0 53 69" fill="none" xmlns="http://www.w3.org/2000/svg">
<rect x="0.5" y="1.40137" width="51.6871" height="66.1875" fill="#F8F8F8"/>
<path d="M26.3436 6.50037C14.2255 6.50037 4.39062 19.042 4.39062 34.4952C4.39062 49.9483 14.2255 62.49 26.3436 62.49C38.4616 62.49 48.2965 49.9483 48.2965 34.4952C48.2965 19.042 38.4616 6.50037 26.3436 6.50037ZM15.5208 52.0759C16.4647 49.5564 22.2164 47.0928 26.3436 47.0928C30.4707 47.0928 36.2444 49.5564 37.1664 52.0759C34.1808 55.0993 30.4268 56.891 26.3436 56.891C22.2603 56.891 18.5064 55.0993 15.5208 52.0759ZM40.3056 48.0166C37.1664 43.1455 29.5487 41.4939 26.3436 41.4939C23.1384 41.4939 15.5208 43.1455 12.3815 48.0166C10.1423 44.2653 8.78121 39.5902 8.78121 34.4952C8.78121 22.1495 16.6623 12.0993 26.3436 12.0993C36.0248 12.0993 43.9059 22.1495 43.9059 34.4952C43.9059 39.5902 42.5448 44.2653 40.3056 48.0166ZM26.3436 17.6983C22.0847 17.6983 18.66 22.0655 18.66 27.4965C18.66 32.9275 22.0847 37.2946 26.3436 37.2946C30.6024 37.2946 34.0271 32.9275 34.0271 27.4965C34.0271 22.0655 30.6024 17.6983 26.3436 17.6983ZM26.3436 31.6957C24.5215 31.6957 23.0506 29.82 23.0506 27.4965C23.0506 25.1729 24.5215 23.2972 26.3436 23.2972C28.1657 23.2972 29.6365 25.1729 29.6365 27.4965C29.6365 29.82 28.1657 31.6957 26.3436 31.6957Z" fill="#003F7E"/>
<rect x="0.5" y="1.40137" width="51.6871" height="66.1875" stroke="#003F7E"/>
</svg>
