<svg width="102" height="100" viewBox="0 0 102 100" fill="none" xmlns="http://www.w3.org/2000/svg">
<path d="M51 8.33337C27.54 8.33337 8.5 27 8.5 50C8.5 73 27.54 91.6667 51 91.6667C74.46 91.6667 93.5 73 93.5 50C93.5 27 74.46 8.33337 51 8.33337ZM51 83.3334C32.2575 83.3334 17 68.375 17 50C17 31.625 32.2575 16.6667 51 16.6667C69.7425 16.6667 85 31.625 85 50C85 68.375 69.7425 83.3334 51 83.3334ZM70.5075 31.5834L42.5 59.0417L31.4925 48.2917L25.5 54.1667L42.5 70.8334L76.5 37.5L70.5075 31.5834Z" fill="#494949"/>
</svg>
