<svg width="34" height="35" viewBox="0 0 34 35" fill="none" xmlns="http://www.w3.org/2000/svg">
<path d="M29.4115 11.8355H27.3671V8.64294C27.3671 4.23725 22.7878 0.661621 17.1453 0.661621C11.5029 0.661621 6.92358 4.23725 6.92358 8.64294V11.8355H4.87923C2.63044 11.8355 0.790527 13.2721 0.790527 15.028V30.9906C0.790527 32.7465 2.63044 34.1832 4.87923 34.1832H29.4115C31.6602 34.1832 33.5002 32.7465 33.5002 30.9906V15.028C33.5002 13.2721 31.6602 11.8355 29.4115 11.8355ZM11.0123 8.64294C11.0123 5.99314 13.7517 3.85415 17.1453 3.85415C20.539 3.85415 23.2784 5.99314 23.2784 8.64294V11.8355H11.0123V8.64294ZM29.4115 30.9906H4.87923V15.028H29.4115V30.9906ZM17.1453 26.2018C19.3941 26.2018 21.2341 24.7652 21.2341 23.0093C21.2341 21.2534 19.3941 19.8168 17.1453 19.8168C14.8966 19.8168 13.0566 21.2534 13.0566 23.0093C13.0566 24.7652 14.8966 26.2018 17.1453 26.2018Z" fill="black"/>
</svg>
