<svg width="102" height="100" viewBox="0 0 102 100" fill="none" xmlns="http://www.w3.org/2000/svg">
<path d="M51.2889 39.1666C40.8339 39.1666 32.3486 48.5 32.3486 60C32.3486 71.5 40.8339 80.8333 51.2889 80.8333C61.7439 80.8333 70.2291 71.5 70.2291 60C70.2291 48.5 61.7439 39.1666 51.2889 39.1666ZM51.2889 76.6666C42.9362 76.6666 36.1367 69.1875 36.1367 60C36.1367 50.8125 42.9362 43.3333 51.2889 43.3333C59.6415 43.3333 66.441 50.8125 66.441 60C66.441 69.1875 59.6415 76.6666 51.2889 76.6666ZM59.9824 50.7916L47.5008 64.5208L42.5953 59.1458L39.9247 62.0833L47.5008 70.4166L62.653 53.75L59.9824 50.7916Z" fill="#494949"/>
<path d="M59.5 8.33337H25.5C20.825 8.33337 17.0425 12.0834 17.0425 16.6667L17 83.3334C17 87.9167 20.7825 91.6667 25.4575 91.6667H76.5C81.175 91.6667 85 87.9167 85 83.3334V33.3334L59.5 8.33337ZM25.5 83.3334V16.6667H55.25V37.5H76.5V83.3334H25.5Z" fill="#494949"/>
</svg>
